Coordinates
version=1
nRows=6
nColumns=107
inDegrees=yes

Units are S.I. units (second, meters, Newtons, ...)
If the header above contains a line with 'inDegrees', this indicates whether rotational values are in degrees (yes) or radians (no).

endheader
time	sternoclavicular_r2	sternoclavicular_r3	unrotscap_r3	unrotscap_r2	acromioclavicular_r2	acromioclavicular_r3	acromioclavicular_r1	unrothum_r1	unrothum_r3	unrothum_r2	elv_angle	shoulder_elv	shoulder1_r2	shoulder_rot	elbow_flexion	pro_sup	deviation	flexion	proximal_distal_r1	proximal_distal_r3	cmc_flexion	cmc_abduction	mp_flexion	ip_flexion	mcp2_flexion	mcp2_abduction	pm2_flexion	md2_flexion	mcp3_flexion	mcp3_abduction	pm3_flexion	md3_flexion	mcp4_flexion	mcp4_abduction	pm4_flexion	md4_flexion	mcp5_flexion	mcp5_abduction	pm5_flexion	md5_flexion	bicpt_tx	bicpt_ty	bicpt_tz	bicpt2_tx	bicpt2_ty	bicpt2_tz	ptpt_tx	ptpt_ty	ptpt_tz	FCUpt_tx	FCUpt_ty	FCUpt_tz	EDCpt_tx	EDCpt_ty	EDCpt_tz	APLpt_tx	APLpt_ty	APLpt_tz	FPLpt_tx	FPLpt_ty	FPLpt_tz	FPLpt2_tx	FPLpt2_ty	FPLpt2_tz	PEC1pt2_tx	PEC1pt2_ty	PEC1pt2_tz	PEC1pt3_tx	PEC1pt3_ty	PEC1pt3_tz	PEC2pt2_tx	PEC2pt2_ty	PEC2pt2_tz	PEC2pt3_tx	PEC2pt3_ty	PEC2pt3_tz	PEC3pt2_tx	PEC3pt2_ty	PEC3pt2_tz	PEC3pt3_tx	PEC3pt3_ty	PEC3pt3_tz	DELT2pt2a_tx	DELT2pt2a_ty	DELT2pt2a_tz	DELT2pt2_tx	DELT2pt2_ty	DELT2pt2_tz	LAT1pt2_tx	LAT1pt2_ty	LAT1pt2_tz	LAT1pt3_tx	LAT1pt3_ty	LAT1pt3_tz	LAT2pt2_tx	LAT2pt2_ty	LAT2pt2_tz	LAT2pt3_tx	LAT2pt3_ty	LAT2pt3_tz	LAT3pt2_tx	LAT3pt2_ty	LAT3pt2_tz	LAT3pt3_tx	LAT3pt3_ty	LAT3pt3_tz
      0.00000000	     -0.33009589	      0.13981304	     -0.13981304	      0.33009589	     -0.06683770	      0.54015881	      0.24279767	     -0.24279767	     -0.54015881	      0.06683770	     98.48500885	     78.15313703	     -1.71888767	    -18.02893628	     28.41675630	     47.28617925	      0.30249405	      0.64714657	      0.33563171	      0.32357328	     38.34215105	    -12.86825254	     23.25413899	      8.54855201	    -34.95601850	     14.02536293	      7.13354835	    -25.98862524	    -43.50934854	      8.59144648	      6.89001967	      9.55321767	    -43.76317250	      1.96416462	     -3.93859835	     18.45032301	    -31.72383271	    -14.48930515	    -11.39120972	      4.97337978	      0.00083994	     -0.03085699	     -0.00482462	      0.01652730	     -0.01791955	     -0.00665500	      0.00405608	     -0.06715922	     -0.00385916	      0.00852199	     -0.18333596	     -0.00041815	     -0.00567433	      0.00168483	      0.00007973	     -0.00101284	     -0.00040514	     -0.00202569	     -0.00129644	     -0.00388932	     -0.00218774	     -0.00001204	     -0.00014182	     -0.00017018	      0.00256169	      0.00898762	      0.00625226	     -0.00837976	      0.02023300	     -0.01919095	      0.00256169	      0.00898762	      0.00625226	      0.00056444	      0.01875677	     -0.00985599	      0.00402240	      0.00499790	      0.01614677	      0.00000000	      0.00817156	      0.00000000	     -0.00733772	     -0.03390981	     -0.00673993	      0.01261291	     -0.00037218	     -0.00264505	     -0.00091179	      0.01528329	     -0.00625226	      0.00251827	      0.02205657	     -0.01823575	     -0.00612200	      0.01324263	     -0.00560098	     -0.01276502	      0.02796148	     -0.03130470	     -0.02396698	      0.01480569	     -0.00751139	     -0.01589115	      0.03230332	     -0.03912002
      0.03333333	     -0.33050824	      0.13998769	     -0.13998769	      0.33050824	     -0.06692120	      0.54083356	      0.24310096	     -0.24310096	     -0.54083356	      0.06692120	     98.56467860	     78.25076301	     -1.72027817	    -17.88594272	     28.37912247	     47.45737912	      0.30184774	      0.64689891	      0.33507403	      0.32344946	     38.27262785	    -12.86778704	     23.21539855	      8.53735702	    -34.92836279	     13.99952039	      7.15158463	    -25.98261106	    -43.49006864	      8.62211056	      6.90411313	      9.55748210	    -43.76407174	      2.00659417	     -3.93569353	     18.44810584	    -31.74396165	    -14.46304850	    -11.39339332	      4.97527869	      0.00083869	     -0.03085268	     -0.00482392	      0.01652473	     -0.01790933	     -0.00663496	      0.00404344	     -0.06716740	     -0.00387295	      0.00853962	     -0.18333204	     -0.00041842	     -0.00569487	      0.00169218	      0.00007781	     -0.00101232	     -0.00040493	     -0.00202465	     -0.00129577	     -0.00388732	     -0.00218662	     -0.00001209	     -0.00014304	     -0.00017165	      0.00256489	      0.00899885	      0.00626007	     -0.00839023	      0.02025827	     -0.01921493	      0.00256489	      0.00899885	      0.00626007	      0.00056514	      0.01878020	     -0.00986830	      0.00402602	      0.00500414	      0.01615533	      0.00000000	      0.00819214	      0.00000000	     -0.00734688	     -0.03395217	     -0.00675701	      0.01252644	     -0.00036791	     -0.00260018	     -0.00091293	      0.01530238	     -0.00626007	      0.00252142	      0.02208412	     -0.01825853	     -0.00612965	      0.01325917	     -0.00560798	     -0.01278097	      0.02799641	     -0.03134380	     -0.02399692	      0.01482418	     -0.00752077	     -0.01591100	      0.03234368	     -0.03916889
      0.06666667	     -0.31651734	      0.13406181	     -0.13406181	      0.31651734	     -0.06408832	      0.51793928	      0.23281014	     -0.23281014	     -0.51793928	      0.06408832	    101.99464670	     74.93829310	     -1.78014240	    -35.57145848	     29.87222094	     66.58001072	      0.21371552	      0.61142165	      0.25265751	      0.30571082	     40.00623391	    -14.34404310	     23.95557608	      8.66486106	    -37.07045274	     13.90583430	      7.74465153	    -23.26768439	    -43.71092272	      8.51835680	      7.42772674	      9.92403879	    -41.96597890	      2.47257515	     -4.47400210	     17.49676821	    -27.53776331	    -14.43814271	    -11.66268855	      5.00341380	      0.00088808	     -0.03102381	     -0.00485149	      0.01581594	     -0.01831494	     -0.00413730	      0.00263049	     -0.06808104	     -0.00541338	      0.01056530	     -0.18284183	     -0.00030909	     -0.00798958	      0.00257051	     -0.00023584	     -0.00093864	     -0.00037546	     -0.00187728	     -0.00120146	     -0.00360437	     -0.00202746	     -0.00001047	     -0.00011099	     -0.00013319	      0.00245631	      0.00861791	      0.00599507	     -0.00803506	      0.01940071	     -0.01840153	      0.00245631	      0.00861791	      0.00599507	      0.00054122	      0.01798521	     -0.00945056	      0.00390115	      0.00479231	      0.01585213	      0.00000000	      0.00750863	      0.00000000	     -0.00703588	     -0.03251492	     -0.00618965	      0.02114033	     -0.00095138	     -0.01038983	     -0.00087428	      0.01465461	     -0.00599507	      0.00241468	      0.02114927	     -0.01748562	     -0.00587017	      0.01269789	     -0.00537058	     -0.01223993	      0.02681128	     -0.03001697	     -0.02298110	      0.01419666	     -0.00720241	     -0.01523747	      0.03097452	     -0.03751081
      0.10000000	     -0.31659139	      0.13409317	     -0.13409317	      0.31659139	     -0.06410332	      0.51806045	      0.23286461	     -0.23286461	     -0.51806045	      0.06410332	    102.02393570	     74.95582502	     -1.78065359	    -35.56004523	     29.89175836	     66.58205599	      0.21371350	      0.61138643	      0.25265525	      0.30569322	     40.00543252	    -14.34412058	     23.95508990	      8.66471440	    -37.07001125	     13.90554870	      7.74498966	    -23.26760842	    -43.71255860	      8.51862195	      7.42764071	      9.92405092	    -41.96755460	      2.47354182	     -4.47446977	     17.49673923	    -27.53879672	    -14.43760757	    -11.66279430	      5.00343489	      0.00088873	     -0.03102605	     -0.00485185	      0.01581580	     -0.01832024	     -0.00413699	      0.00263034	     -0.06808114	     -0.00541354	      0.01056553	     -0.18284177	     -0.00030905	     -0.00798983	      0.00257062	     -0.00023589	     -0.00093857	     -0.00037543	     -0.00187713	     -0.00120137	     -0.00360410	     -0.00202731	     -0.00001047	     -0.00011101	     -0.00013321	      0.00245689	      0.00861993	      0.00599647	     -0.00803694	      0.01940525	     -0.01840583	      0.00245689	      0.00861993	      0.00599647	      0.00054135	      0.01798941	     -0.00945277	      0.00390182	      0.00479343	      0.01585380	      0.00000000	      0.00751217	      0.00000000	     -0.00703753	     -0.03252253	     -0.00619258	      0.02113603	     -0.00095097	     -0.01038363	     -0.00087449	      0.01465804	     -0.00599647	      0.00241525	      0.02115422	     -0.01748971	     -0.00587154	      0.01270086	     -0.00537184	     -0.01224280	      0.02681755	     -0.03002400	     -0.02298647	      0.01419998	     -0.00720409	     -0.01524103	      0.03098177	     -0.03751959
      0.13333333	     -0.32024718	      0.13564159	     -0.13564159	      0.32024718	     -0.06484354	      0.52404268	      0.23555358	     -0.23555358	     -0.52404268	      0.06484354	    100.84112421	     75.82136673	     -1.76000964	    -30.19255604	     29.26976826	     58.58654280	      0.21789528	      0.54269026	      0.25685416	      0.27134513	     38.15354110	    -13.17788027	     22.77317825	      7.38642311	    -33.35663202	     13.92415143	      7.20897057	    -26.62476026	    -42.55565323	      8.81440486	      6.89413999	     10.31026181	    -41.76296515	      3.08938745	     -5.34830782	     19.51626279	    -30.82138414	    -14.43617903	     -9.79478075	      5.03318493	      0.00086815	     -0.03095476	     -0.00484036	      0.01621406	     -0.01815128	     -0.00524376	      0.00322112	     -0.06769913	     -0.00476946	      0.00970481	     -0.18305938	     -0.00038831	     -0.00703037	      0.00218962	     -0.00008060	     -0.00080183	     -0.00032073	     -0.00160367	     -0.00102635	     -0.00307904	     -0.00173196	     -0.00001217	     -0.00014512	     -0.00017415	      0.00248526	      0.00871946	      0.00606571	     -0.00812974	      0.01962933	     -0.01861837	      0.00248526	      0.00871946	      0.00606571	      0.00054760	      0.01819714	     -0.00956192	      0.00393484	      0.00484878	      0.01593552	      0.00000000	      0.00768785	      0.00000000	     -0.00711879	     -0.03289808	     -0.00633847	      0.01896337	     -0.00076367	     -0.00759259	     -0.00088458	      0.01482730	     -0.00606571	      0.00244313	      0.02139849	     -0.01769167	     -0.00593935	      0.01284752	     -0.00543387	     -0.01238417	      0.02712722	     -0.03037070	     -0.02325191	      0.01436395	     -0.00728728	     -0.01541702	      0.03133952	     -0.03795284
      0.16666667	     -0.32026616	      0.13564963	     -0.13564963	      0.32026616	     -0.06484738	      0.52407374	      0.23556754	     -0.23556754	     -0.52407374	      0.06484738	    100.84570691	     75.82586121	     -1.76008962	    -30.19274682	     29.27560436	     58.58564243	      0.21790057	      0.54268317	      0.25685849	      0.27134158	     38.15413083	    -13.17830130	     22.77314558	      7.38660957	    -33.35632242	     13.92397846	      7.20938957	    -26.62452691	    -42.55676422	      8.81437756	      6.89423936	     10.31020476	    -41.76508709	      3.08916291	     -5.34899769	     19.51594256	    -30.82014843	    -14.43620795	     -9.79453627	      5.03320927	      0.00086835	     -0.03095543	     -0.00484047	      0.01621400	     -0.01815286	     -0.00524382	      0.00322118	     -0.06769909	     -0.00476939	      0.00970472	     -0.18305940	     -0.00038829	     -0.00703026	      0.00218959	     -0.00008061	     -0.00080187	     -0.00032075	     -0.00160375	     -0.00102640	     -0.00307920	     -0.00173205	     -0.00001217	     -0.00014511	     -0.00017413	      0.00248541	      0.00871998	      0.00606607	     -0.00813022	      0.01963049	     -0.01861948	      0.00248541	      0.00871998	      0.00606607	      0.00054763	      0.01819822	     -0.00956249	      0.00393501	      0.00484907	      0.01593594	      0.00000000	      0.00768877	      0.00000000	     -0.00711921	     -0.03290003	     -0.00633923	      0.01896321	     -0.00076368	     -0.00759290	     -0.00088464	      0.01482818	     -0.00606607	      0.00244328	      0.02139976	     -0.01769272	     -0.00593970	      0.01284828	     -0.00543419	     -0.01238490	      0.02712883	     -0.03037250	     -0.02325328	      0.01436480	     -0.00728771	     -0.01541794	      0.03134138	     -0.03795509
